<mxfile host="app.diagrams.net" modified="2022-05-06T01:16:41.958Z" agent="5.0 (Macintosh; Intel Mac OS X 10_15_7) AppleWebKit/537.36 (KHTML, like Gecko) Chrome/100.0.4896.127 Safari/537.36" etag="BvE0dHtAr39VB2tzkEOH" version="17.5.0" type="github">
  <diagram id="WiGuBrc1i97fH-FrYtEF" name="第 1 页">
    <mxGraphModel dx="1426" dy="-375" grid="1" gridSize="10" guides="1" tooltips="1" connect="1" arrows="1" fold="1" page="1" pageScale="1" pageWidth="827" pageHeight="1169" math="0" shadow="0">
      <root>
        <mxCell id="0" />
        <mxCell id="1" parent="0" />
        <mxCell id="TS1yVxYaO-tpHvFG9DHE-1" value="Consumer-1" style="rounded=0;whiteSpace=wrap;html=1;verticalAlign=top;" vertex="1" parent="1">
          <mxGeometry x="30" y="1250" width="320" height="190" as="geometry" />
        </mxCell>
        <mxCell id="TS1yVxYaO-tpHvFG9DHE-2" style="edgeStyle=orthogonalEdgeStyle;rounded=0;orthogonalLoop=1;jettySize=auto;html=1;entryX=0;entryY=0.5;entryDx=0;entryDy=0;fontSize=14;curved=1;fillColor=#dae8fc;strokeColor=#6c8ebf;strokeWidth=2;" edge="1" parent="1" source="TS1yVxYaO-tpHvFG9DHE-3" target="TS1yVxYaO-tpHvFG9DHE-9">
          <mxGeometry relative="1" as="geometry" />
        </mxCell>
        <mxCell id="TS1yVxYaO-tpHvFG9DHE-3" value="/v1/order/create" style="rounded=0;whiteSpace=wrap;html=1;fillColor=#dae8fc;strokeColor=#6c8ebf;fontStyle=1;fontSize=14;" vertex="1" parent="1">
          <mxGeometry x="160" y="1300" width="250" height="40" as="geometry" />
        </mxCell>
        <mxCell id="TS1yVxYaO-tpHvFG9DHE-4" style="edgeStyle=orthogonalEdgeStyle;curved=1;rounded=0;orthogonalLoop=1;jettySize=auto;html=1;entryX=0;entryY=0.5;entryDx=0;entryDy=0;fontSize=14;fillColor=#d5e8d4;strokeColor=#82b366;strokeWidth=2;" edge="1" parent="1" source="TS1yVxYaO-tpHvFG9DHE-5" target="TS1yVxYaO-tpHvFG9DHE-10">
          <mxGeometry relative="1" as="geometry" />
        </mxCell>
        <mxCell id="TS1yVxYaO-tpHvFG9DHE-5" value="/v1/item/save" style="rounded=0;whiteSpace=wrap;html=1;fillColor=#d5e8d4;strokeColor=#82b366;fontStyle=1;fontSize=14;" vertex="1" parent="1">
          <mxGeometry x="160" y="1360" width="250" height="40" as="geometry" />
        </mxCell>
        <mxCell id="TS1yVxYaO-tpHvFG9DHE-6" value="Provider-v1" style="rounded=0;whiteSpace=wrap;html=1;verticalAlign=top;" vertex="1" parent="1">
          <mxGeometry x="530" y="1257.5" width="320" height="175" as="geometry" />
        </mxCell>
        <mxCell id="TS1yVxYaO-tpHvFG9DHE-7" value="/v1/order/create" style="rounded=0;whiteSpace=wrap;html=1;fillColor=#dae8fc;strokeColor=#6c8ebf;fontStyle=1;fontSize=14;" vertex="1" parent="1">
          <mxGeometry x="553" y="1300" width="170" height="40" as="geometry" />
        </mxCell>
        <mxCell id="TS1yVxYaO-tpHvFG9DHE-8" value="/v1/item/save" style="rounded=0;whiteSpace=wrap;html=1;fillColor=#d5e8d4;strokeColor=#82b366;fontStyle=1;fontSize=14;" vertex="1" parent="1">
          <mxGeometry x="543" y="1360" width="180" height="40" as="geometry" />
        </mxCell>
        <mxCell id="TS1yVxYaO-tpHvFG9DHE-9" value="" style="ellipse;whiteSpace=wrap;html=1;aspect=fixed;" vertex="1" parent="1">
          <mxGeometry x="513" y="1295" width="50" height="50" as="geometry" />
        </mxCell>
        <mxCell id="TS1yVxYaO-tpHvFG9DHE-10" value="" style="ellipse;whiteSpace=wrap;html=1;aspect=fixed;" vertex="1" parent="1">
          <mxGeometry x="513" y="1355" width="50" height="50" as="geometry" />
        </mxCell>
      </root>
    </mxGraphModel>
  </diagram>
</mxfile>
